<?xml version="1.0" encoding="UTF-8"?>
<svg width="49px" height="30px" viewBox="0 0 49 30" version="1.1" xmlns="http://www.w3.org/2000/svg" xmlns:xlink="http://www.w3.org/1999/xlink">
    <!-- Generator: Sketch 53.2 (72643) - https://sketchapp.com -->
    <title>nodejs</title>
    <desc>Created with Sketch.</desc>
    <g id="Website" stroke="none" stroke-width="1" fill="none" fill-rule="evenodd">
        <g id="Home" transform="translate(-174.000000, -281.000000)" fill="#F5734D">
            <g id="Group" transform="translate(174.000000, 281.000000)">
                <path d="M17.7916209,6.94051973 L17.7904029,6.94051973 C17.8778794,6.89035913 17.9753216,6.86522347 18.0727639,6.86522347 C18.1702061,6.86522347 18.2676483,6.89035913 18.3551248,6.94051973 L23.0190639,9.63313621 C23.194017,9.73390032 23.3014249,9.91992638 23.3014249,10.1210117 L23.3014249,15.5100095 C23.3014249,15.7110948 23.194017,15.8971208 23.0201712,15.997885 L18.3555678,18.6926053 C18.1813898,18.7930372 17.9663525,18.7930372 17.7919531,18.6926053 L13.1265745,15.997885 C12.9518429,15.8971208 12.8446565,15.7112055 12.8446565,15.5100095 L12.8446565,10.1210117 C12.8446565,9.91992638 12.9518429,9.73390032 13.1265745,9.63313621 L17.7916209,6.94051973 Z M24.210738,30 C24.0490725,30 23.8885143,29.9575905 23.7467801,29.8759826 L22.2699768,29.0016601 C22.0494031,28.8783072 22.1570324,28.8346796 22.2297819,28.809544 C22.5238802,28.7065652 22.5835636,28.683312 22.8974826,28.505037 C22.9304801,28.4862129 22.9736647,28.4928567 23.0074373,28.5127881 L24.1419748,29.1860253 C24.1829448,29.2081712 24.2410779,29.2081712 24.2790583,29.1860253 L28.7027137,26.6325961 C28.7436837,26.6093429 28.7702588,26.5617291 28.7702588,26.513008 L28.7702588,21.4083643 C28.7702588,21.3574286 28.7436837,21.3120294 28.7018278,21.2865615 L24.2799441,18.735347 C24.2389741,18.7109864 24.1847165,18.7109864 24.1437464,18.735347 L19.7227486,21.2865615 C19.6798961,21.3109221 19.6526566,21.3585359 19.6526566,21.407257 L19.6526566,26.5119007 C19.6526566,26.5606218 19.6792318,26.6071283 19.7213091,26.6303815 L20.9326931,27.3301939 C21.5904281,27.6590614 21.9923772,27.2715071 21.9923772,26.8817382 L21.9923772,21.8435324 C21.9923772,21.771558 22.0488494,21.7161931 22.1208238,21.7161931 L22.6811166,21.7161931 C22.7508763,21.7161931 22.8084558,21.771558 22.8084558,21.8435324 L22.8084558,26.8839528 C22.8084558,27.7609328 22.3301031,28.2647533 21.4985223,28.2647533 C21.2427365,28.2647533 21.0412083,28.2647533 20.4787009,27.9879289 L19.3182526,27.3191209 C19.0314624,27.1530262 18.8542948,26.8429828 18.8542948,26.5119007 L18.8542948,21.407257 C18.8542948,21.0750676 19.0314624,20.7650242 19.3182526,20.6011441 L23.7463372,18.0466077 C24.0264836,17.888264 24.3985357,17.888264 24.6764675,18.0466077 L29.0990156,20.6022514 C29.3846985,20.7672388 29.5629735,21.0761749 29.5629735,21.4083643 L29.5629735,26.513008 C29.5629735,26.84409 29.3846985,27.1530262 29.0990156,27.3191209 L24.6764675,29.8736573 C24.5347334,29.9555974 24.3741752,29.9976747 24.2102951,29.9976747 L24.210738,30 Z M25.5771437,26.4825573 C23.6415868,26.4825573 23.2357621,25.5940614 23.2357621,24.8488498 C23.2357621,24.7779828 23.2928987,24.7215106 23.3638765,24.7215106 L23.9352422,24.7215106 C23.9983582,24.7215106 24.0515085,24.7674634 24.0614742,24.8298043 C24.1478434,25.4120216 24.4047366,25.705677 25.5751505,25.705677 C26.5074954,25.705677 26.9039081,25.4950689 26.9039081,25.0006604 C26.9039081,24.7160848 26.7909637,24.5045909 25.342618,24.3628568 C24.131234,24.2432686 23.3827005,23.9764098 23.3827005,23.007524 C23.3827005,22.1150419 24.1356632,21.5835388 25.3968756,21.5835388 C26.8131097,21.5835388 27.5151366,22.0751791 27.6037204,23.1315414 C27.6070423,23.1680822 27.5937547,23.2035158 27.5693942,23.2300909 C27.5450336,23.2555588 27.5107074,23.271061 27.4752739,23.271061 L26.9005862,23.271061 C26.8407921,23.271061 26.7887491,23.2289836 26.7765688,23.1714041 C26.6381566,22.5590684 26.3037526,22.3630766 25.394661,22.3630766 C24.3770541,22.3630766 24.2585732,22.717412 24.2585732,22.9831635 C24.2585732,23.3053872 24.3980928,23.3995075 25.7711423,23.5811044 C27.1309042,23.761594 27.7764589,24.0162725 27.7764589,24.9718706 C27.7764589,25.9352199 26.9725606,26.4877616 25.5707213,26.4877616 L25.5771437,26.4825573 Z M30.9588333,21.0741818 L31.1072112,21.0741818 C31.229014,21.0741818 31.2522672,20.9889198 31.2522672,20.9390914 C31.2522672,20.8084303 31.1625761,20.8084303 31.1127477,20.8084303 L30.9599406,20.8084303 L30.9588333,21.0741818 Z M30.7783437,20.6556231 L31.1072112,20.6556231 C31.2201556,20.6556231 31.4416152,20.6556231 31.4416152,20.9080871 C31.4416152,21.0841475 31.3286708,21.1206883 31.2611256,21.1428342 C31.3928941,21.1516926 31.4017525,21.2380619 31.4194692,21.3598647 C31.4283276,21.4362682 31.4427225,21.5680367 31.4692976,21.6123286 L31.2666621,21.6123286 C31.2611256,21.5680367 31.2301213,21.3244311 31.2301213,21.3111435 C31.2168337,21.2568859 31.1980096,21.2303108 31.1304645,21.2303108 L30.9632625,21.2303108 L30.9632625,21.6134359 L30.7783437,21.6134359 L30.7783437,20.6556231 Z M30.3830383,21.1317613 C30.3830383,21.5281739 30.7030474,21.8492904 31.0961382,21.8492904 C31.4925509,21.8492904 31.81256,21.5215302 31.81256,21.1317613 C31.81256,20.7342413 31.4881217,20.4186614 31.0950309,20.4186614 C30.7074766,20.4186614 30.381931,20.7298121 30.381931,21.130654 L30.3830383,21.1317613 Z M31.949865,21.1339759 C31.949865,21.6034702 31.5656326,21.9865953 31.0972455,21.9865953 C30.6321804,21.9865953 30.2446261,21.6078994 30.2446261,21.1339759 C30.2446261,20.651194 30.6410388,20.2813564 31.0972455,20.2813564 C31.5567742,20.2813564 31.9487577,20.6523012 31.9487577,21.1339759 L31.949865,21.1339759 Z M10.512244,10.0265592 L10.5031642,17.2937558 C10.5031642,17.3945199 10.4486851,17.4886402 10.3627588,17.5384686 C10.2756145,17.5905116 10.1667671,17.5905116 10.0792905,17.5384686 L7.2928859,15.9428522 C7.11771137,15.8387662 7.00886397,15.6527402 7.00886397,15.4512119 L7.00886397,12.0559042 C7.00886397,11.8532686 6.90101315,11.6661353 6.72539569,11.5653712 L5.53892592,10.8819469 C5.45322105,10.8309004 5.35422861,10.8058755 5.25722931,10.8058755 C5.15867979,10.8058755 5.06190195,10.8311219 4.97376103,10.8820576 L3.78673761,11.5657034 C3.61123088,11.6664675 3.50382297,11.8536008 3.50382297,12.0562364 L3.50382297,15.4517656 C3.50382297,15.6535153 3.39641507,15.8386555 3.22035469,15.9434059 L0.432178399,17.5401296 C0.345809157,17.5932799 0.237293955,17.5932799 0.150924714,17.5401296 C0.0623408758,17.4903012 0.0102978711,17.3961808 0.0102978711,17.2954167 L-5.68434189e-14,10.0271128 C-5.68434189e-14,9.82337 0.10895812,9.63623664 0.28368974,9.53436523 L4.97353957,6.83588007 C5.05404013,6.78937356 5.1427347,6.765013 5.2326473,6.76169111 L5.28114695,6.76169111 C5.37105954,6.765013 5.45975411,6.78937356 5.53892592,6.83588007 L10.2289972,9.53436523 C10.4048361,9.63568299 10.512244,9.82281635 10.512244,10.0265592 Z M32.6435871,13.8108607 L32.6430335,11.9510431 C32.6430335,11.9003288 32.6164583,11.8536008 32.5721664,11.828133 L30.9610479,10.8980027 C30.916756,10.8725348 30.8624984,10.8725348 30.8182064,10.8980027 L29.2081952,11.828133 C29.1650106,11.8536008 29.1384354,11.9003288 29.1384354,11.9510431 L29.1384354,13.8108607 C29.1384354,13.8613535 29.1650106,13.9081922 29.2093025,13.9333279 L30.820421,14.861908 C30.8640486,14.8870436 30.9180847,14.8870436 30.961823,14.861908 L32.5727201,13.9333279 C32.6166798,13.9083029 32.6435871,13.8614642 32.6435871,13.8108607 Z M33.0787552,0.0358524926 L35.8696998,1.59371001 C36.0490821,1.69414194 36.1609191,1.8831577 36.1609191,2.0886722 L36.1609191,15.5888491 C36.1609191,15.7914846 36.0524039,15.9775107 35.8774509,16.0793821 L31.1858294,18.7900475 C31.0101012,18.8908116 30.7943995,18.8908116 30.619225,18.7900475 L25.9276035,16.0804894 C25.7523182,15.978618 25.6441352,15.7925919 25.6441352,15.5899564 L25.6441352,10.1730547 C25.6441352,9.97152647 25.7523182,9.78439311 25.9276035,9.68362899 L30.619225,6.97595326 C30.7948424,6.87474623 31.0103226,6.87474623 31.1852757,6.97595326 L32.3601189,7.65262305 C32.4215739,7.68805659 32.4974238,7.68805659 32.5583252,7.65262305 C32.6196695,7.61718952 32.6573176,7.55185894 32.6573176,7.48099187 L32.6573176,0.283555049 C32.6573176,0.182790934 32.7106894,0.0897779039 32.7970586,0.0388421971 C32.8838708,-0.0117613202 32.9908358,-0.0130900778 33.0787552,0.0358524926 Z M48.7019545,11.9021005 L45.8878675,13.536583 C45.8003909,13.5875187 45.6918757,13.5875187 45.6043992,13.5376903 C45.5169226,13.4867546 45.462665,13.3926343 45.462665,13.2918702 L45.462665,11.9564688 C45.462665,11.8557047 45.4084074,11.7615844 45.3209309,11.711756 L43.8515465,10.864673 C43.7640699,10.8137373 43.656662,10.8137373 43.5691855,10.864673 L42.1009084,11.711756 C42.0123246,11.7622487 41.9591743,11.8557047 41.9591743,11.9571332 L41.9591743,13.6557283 C41.9591743,13.7564924 42.0134319,13.8506127 42.1020157,13.9004411 L46.8213196,16.608892 C46.9099035,16.6587204 46.9641611,16.753948 46.9641611,16.8558194 C46.9641611,16.9576908 46.9076889,17.0518112 46.8191051,17.1016396 L43.9999244,18.6684662 C43.8260786,18.7648011 43.615692,18.7636938 43.4440608,18.6651443 L38.7834437,16.0087365 C38.6073833,15.9079724 38.4977608,15.7197317 38.4977608,15.5159889 L38.4977608,10.1013018 C38.4977608,9.89866626 38.6051687,9.7126402 38.7812291,9.61076879 L43.4717433,6.90342525 C43.6478037,6.80155383 43.8637268,6.80155383 44.0397871,6.90342525 L48.7015116,9.60966149 C48.8761325,9.71131144 48.9835404,9.89766969 48.9835404,10.0996408 L48.9835404,11.4124533 C48.9835404,11.6139815 48.8762432,11.8008934 48.7019545,11.9021005 Z M43.6871127,11.6487507 C43.7203317,11.6291515 43.7619661,11.6291515 43.7956279,11.6487507 L44.6958612,12.1680735 C44.729523,12.1875619 44.7501188,12.2234384 44.7501188,12.2621938 L44.7501188,13.3019466 C44.7501188,13.340702 44.729523,13.3765785 44.6958612,13.3960669 L43.7956279,13.9153897 C43.7619661,13.9349888 43.7203317,13.9349888 43.6871127,13.9153897 L42.7874331,13.3960669 C42.7531069,13.3765785 42.7320682,13.340702 42.7320682,13.3019466 L42.7320682,12.2621938 C42.7320682,12.2234384 42.7519996,12.1875619 42.7863258,12.1680735 L43.6871127,11.6487507 Z" id="nodejs"></path>
            </g>
        </g>
    </g>
</svg>