<?xml version="1.0" encoding="UTF-8"?>
<svg width="43px" height="22px" viewBox="0 0 43 22" version="1.1" xmlns="http://www.w3.org/2000/svg" xmlns:xlink="http://www.w3.org/1999/xlink">
    <!-- Generator: Sketch 53.2 (72643) - https://sketchapp.com -->
    <title>php</title>
    <desc>Created with Sketch.</desc>
    <g id="Website" stroke="none" stroke-width="1" fill="none" fill-rule="evenodd">
        <g id="Home" transform="translate(-249.000000, -285.000000)" fill="#F5734D" fill-rule="nonzero">
            <g id="Group" transform="translate(174.000000, 281.000000)">
                <path d="M79.028422,9 L85.1725974,9 C86.9759674,9.01519697 88.2827509,9.53710429 89.0929481,10.5648536 C89.9031453,11.5926028 90.1704714,12.9963685 89.8953591,14.7761506 C89.7885151,15.5894055 89.5514686,16.3870293 89.1846522,17.1694561 C88.8329756,17.9518828 88.3441754,18.6574564 87.7173864,19.2866109 C86.9530413,20.0842346 86.1354905,20.5905108 85.2643015,20.8054393 C84.3931124,21.0203679 83.4912111,21.1276151 82.5590302,21.1276151 L79.8079069,21.1276151 L78.9367178,25.5 L75.75,25.5 L79.028422,9 Z M81.7107672,11.623431 L80.3352055,18.5271967 C80.4269096,18.5423936 80.5186138,18.5502092 80.6103179,18.5502092 C80.7171618,18.5502092 80.8244383,18.5502092 80.9312822,18.5502092 C82.398548,18.5654062 83.6214137,18.4199495 84.5994467,18.1129707 C85.5774797,17.790795 86.2349808,16.6709955 86.5710851,14.7531381 C86.8461974,13.1422594 86.5710851,12.2139417 85.7457481,11.9686192 C84.9355509,11.7232968 83.919452,11.608234 82.6965864,11.623431 C82.5131782,11.6386279 82.3375561,11.6464435 82.1692877,11.6464435 C82.0165917,11.6464435 81.8561096,11.6464435 81.6878412,11.6464435 L81.7107672,11.623431 Z M93.3073632,4.5 L96.4769196,4.5 L95.5811754,8.88927577 L98.4291826,8.88927577 C99.990993,8.92006097 101.15455,9.24178799 101.920288,9.85445682 C102.701193,10.4671257 102.930871,11.6317601 102.609322,13.347493 L101.07048,21 L97.8549876,21 L99.3249268,13.6922006 C99.477901,12.9260393 99.4319654,12.382312 99.18712,12.060585 C98.9422746,11.7388579 98.4140152,11.5779944 97.6023418,11.5779944 L95.052916,11.5550139 L93.1695564,21 L90,21 L93.3073632,4.5 Z M106.778422,9 L112.922597,9 C114.725967,9.01519697 116.032751,9.53710429 116.842948,10.5648536 C117.653145,11.5926028 117.920471,12.9963685 117.645359,14.7761506 C117.538515,15.5894055 117.301469,16.3870293 116.934652,17.1694561 C116.582976,17.9518828 116.094175,18.6574564 115.467386,19.2866109 C114.703041,20.0842346 113.885491,20.5905108 113.014301,20.8054393 C112.143112,21.0203679 111.241211,21.1276151 110.30903,21.1276151 L107.557907,21.1276151 L106.686718,25.5 L103.5,25.5 L106.778422,9 Z M109.460767,11.623431 L108.085206,18.5271967 C108.17691,18.5423936 108.268614,18.5502092 108.360318,18.5502092 C108.467162,18.5502092 108.574438,18.5502092 108.681282,18.5502092 C110.148548,18.5654062 111.371414,18.4199495 112.349447,18.1129707 C113.32748,17.790795 113.984981,16.6709955 114.321085,14.7531381 C114.596197,13.1422594 114.321085,12.2139417 113.495748,11.9686192 C112.685551,11.7232968 111.669452,11.608234 110.446586,11.623431 C110.263178,11.6386279 110.087556,11.6464435 109.919288,11.6464435 C109.766592,11.6464435 109.60611,11.6464435 109.437841,11.6464435 L109.460767,11.623431 Z" id="php"></path>
            </g>
        </g>
    </g>
</svg>