<?xml version="1.0" encoding="UTF-8"?>
<svg width="27px" height="24px" viewBox="0 0 27 24" version="1.1" xmlns="http://www.w3.org/2000/svg" xmlns:xlink="http://www.w3.org/1999/xlink">
    <!-- Generator: Sketch 53.2 (72643) - https://sketchapp.com -->
    <title>react</title>
    <desc>Created with Sketch.</desc>
    <g id="Website" stroke="none" stroke-width="1" fill="none" fill-rule="evenodd">
        <g id="Home" transform="translate(-320.000000, -284.000000)" fill="#F5734D" fill-rule="nonzero">
            <g id="Group" transform="translate(174.000000, 281.000000)">
                <path d="M151.98851,11.597662 C151.666399,11.6891324 151.356329,11.7866554 151.059807,11.8899605 C149.805103,12.3272509 148.782833,12.8771134 148.088577,13.4709717 C147.463006,14.0060772 147.152471,14.5342364 147.152471,14.9765167 C147.152471,15.4381444 147.490273,16.0070284 148.159377,16.5799982 C148.90397,17.2176108 149.990293,17.8018735 151.305719,18.2514305 C151.519793,18.3245882 151.74189,18.3942 151.971542,18.4602294 C152.312391,17.3490779 152.761681,16.1826288 153.303062,15.0046181 C152.768787,13.8437612 152.326029,12.6956386 151.98851,11.597662 Z M153.107313,11.3149721 C153.341749,12.0704605 153.629157,12.8530814 153.964567,13.6487429 C154.205395,13.1823251 154.459624,12.7167168 154.726244,12.254616 C154.993613,11.7909067 155.269801,11.3370369 155.553162,10.8949731 C154.697886,11.0017428 153.877115,11.1427268 153.107313,11.3149721 Z M155.57702,19.1407447 C155.286562,18.6899984 155.003791,18.2275326 154.730677,17.7557305 L154.730658,17.7556967 C154.46234,17.2921071 154.206963,16.8258296 153.965407,16.3592668 C153.622673,17.1722065 153.329145,17.9717261 153.090878,18.7410387 C153.860352,18.908569 154.693524,19.0421507 155.57702,19.1407447 Z M157.046068,19.2694283 C157.832485,19.3204705 158.649484,19.3463019 159.489075,19.3463019 C160.332415,19.3463019 161.160077,19.3169274 161.961203,19.2595316 C162.400184,18.6013447 162.832519,17.9037799 163.25359,17.1735683 C163.674961,16.443001 164.063022,15.7114055 164.41354,14.9888156 C164.062136,14.2788986 163.673129,13.5548504 163.250044,12.8240104 C162.83179,12.1013747 162.396452,11.4066102 161.95038,10.7481027 C161.148244,10.6869047 160.324238,10.6552999 159.489075,10.6552999 C158.657796,10.6552999 157.834941,10.6866972 157.032615,10.7473211 C156.57953,11.4107869 156.141167,12.10788 155.724601,12.8303512 L155.724517,12.8304984 C155.309018,13.5506292 154.925012,14.2790278 154.576646,15.0041953 C154.925185,15.7282191 155.310207,16.4563571 155.728107,17.1783901 L155.728088,17.1783563 C156.146905,17.9018606 156.588924,18.6020667 157.046068,19.2694283 Z M165.024055,13.6509005 C165.365195,12.8519718 165.655099,12.0725012 165.887673,11.3269385 C165.113194,11.1502121 164.288141,11.0060321 163.427442,10.8972017 C163.706754,11.3350593 163.980572,11.7855311 164.247467,12.246657 C164.520109,12.7176213 164.779265,13.1862673 165.024055,13.6509005 Z M165.940664,18.6909246 C165.699447,17.9353128 165.395641,17.1405792 165.035224,16.3191569 C164.788381,16.7950159 164.526922,17.2725558 164.251936,17.7493225 C163.980851,18.2194319 163.704999,18.6768293 163.42541,19.1199072 C164.314676,19.0130381 165.158805,18.8693322 165.940664,18.6909246 Z M167.057347,18.3997103 C167.211721,18.3539132 167.362802,18.3065513 167.51042,18.2576461 C168.879883,17.8041347 170.007749,17.2208477 170.779151,16.5857586 C171.47569,16.0123044 171.824883,15.443764 171.824883,14.9765167 C171.824883,14.5360703 171.501334,14.002846 170.851576,13.4607008 C170.134579,12.862453 169.083925,12.3075626 167.805833,11.8676128 C167.547943,11.7788696 167.280719,11.6945321 167.004999,11.6147574 C166.67308,12.6889441 166.229931,13.8240512 165.691837,14.9833709 C166.255671,16.1705675 166.716048,17.3193617 167.057347,18.3997103 Z M162.590234,9.64589683 C163.862726,9.76526391 165.078338,9.9575023 166.197695,10.215725 C166.241877,10.0346601 166.282097,9.85630002 166.318255,9.6808872 C166.609554,8.26754859 166.667701,6.99882152 166.502884,6.01313483 C166.354077,5.12320259 166.036034,4.53670014 165.631376,4.30337105 C165.249944,4.08342922 164.626391,4.09733738 163.832142,4.38931566 C162.955628,4.71153597 161.949984,5.3444232 160.93024,6.23180558 C160.724183,6.41108384 160.517281,6.6006795 160.310091,6.79994295 C161.081021,7.63070802 161.849114,8.59040812 162.590234,9.64589683 Z M161.089865,9.54046521 C160.566347,8.84289772 160.034036,8.19986077 159.502472,7.62394972 C158.962536,8.20636312 158.425565,8.84881294 157.901446,9.53977034 C158.425657,9.51530247 158.955819,9.5028293 159.489075,9.5028293 C160.02771,9.5028293 160.562163,9.51552445 161.089865,9.54046521 Z M167.371521,19.508602 C167.43252,19.7537611 167.486444,19.9944351 167.533083,20.2302174 C168.143708,23.3142469 167.673234,25.8494661 166.226163,26.6866063 C165.508725,27.1018025 164.559803,27.0955173 163.494343,26.7206998 C162.485626,26.365844 161.377105,25.6825604 160.267637,24.7280256 C160.025967,24.5199913 159.783046,24.2983075 159.539736,24.0640194 C159.351308,24.2462214 159.163244,24.419488 158.975821,24.5833888 C156.609483,26.6523682 154.177826,27.5110698 152.72959,26.6758599 C152.011627,26.2616897 151.543255,25.4364001 151.335901,24.3260279 C151.139618,23.274943 151.177907,21.9733651 151.450554,20.5357363 C151.510147,20.2214982 151.581008,19.8993458 151.662661,19.5705533 C151.411401,19.4984833 151.168021,19.422283 150.933026,19.3419755 C147.95811,18.3252745 146,16.6484976 146,14.9765167 C146,14.1476001 146.481023,13.3294759 147.339445,12.5951917 C148.152081,11.9000735 149.298917,11.2832085 150.680586,10.8016683 C150.999945,10.6904072 151.33329,10.585616 151.679028,10.4875621 C151.603513,10.1842956 151.537012,9.88619142 151.479845,9.59412772 C151.195129,8.13863988 151.143634,6.81327243 151.328003,5.74295092 C151.524281,4.60349147 151.986685,3.75842417 152.710459,3.33975021 C154.176764,2.49067856 156.618572,3.40206639 159.054743,5.5652182 C159.203574,5.697354 159.352792,5.83502439 159.502221,5.97798707 C159.72623,5.76225136 159.950267,5.55681408 160.173737,5.36238492 C161.292486,4.38884806 162.415032,3.68239067 163.434494,3.30762049 C164.519574,2.90872826 165.482605,2.88724812 166.20706,3.30498432 C167.674691,4.15123144 168.104661,6.7226548 167.446998,9.91354088 C167.407019,10.107492 167.36249,10.3045105 167.313532,10.5043258 C167.611831,10.5904148 167.901252,10.6816514 168.180886,10.777877 C169.583177,11.2605793 170.755969,11.8799754 171.589916,12.575804 C172.477625,13.3164909 172.977354,14.1400669 172.977354,14.9765167 C172.977354,16.6707933 170.964794,18.3277164 167.87279,19.3516645 C167.709372,19.4058045 167.542217,19.4581238 167.371521,19.508602 Z M166.256623,19.8007842 C165.139607,20.0590432 163.907861,20.2483477 162.604439,20.364138 C161.862783,21.4379345 161.102691,22.4048683 160.342172,23.2368621 C160.568945,23.455097 160.794961,23.6613012 161.019388,23.854493 C162.026885,24.7212969 163.015021,25.330376 163.876795,25.6335388 C164.653285,25.9066999 165.265941,25.9107578 165.648983,25.6890836 C166.048368,25.4580365 166.371512,24.8807647 166.532235,24.0146873 C166.711117,23.0507515 166.672567,21.8177637 166.402539,20.453953 C166.360394,20.2408899 166.311695,20.0230415 166.256623,19.8007842 Z M152.796004,10.2038277 C153.912772,9.95088995 155.12743,9.76193681 156.396035,9.64433293 C157.13591,8.60023038 157.910708,7.64196316 158.694668,6.80033119 C158.559215,6.67099042 158.424128,6.54648191 158.28957,6.4270179 C157.210572,5.46894216 156.140601,4.78507656 155.204543,4.43569933 C154.35928,4.12021085 153.692388,4.10290145 153.287747,4.33721067 C152.906719,4.55761981 152.607398,5.10464413 152.463747,5.93858919 C152.305229,6.85883628 152.351363,8.04621461 152.610866,9.37281586 C152.66396,9.64407299 152.725771,9.92135495 152.796004,10.2038277 Z M157.910147,20.4682927 C158.442576,21.1699752 158.98785,21.8225091 159.534434,22.4122589 C160.062747,21.8305163 160.59347,21.1769982 161.119022,20.4627513 C160.583553,20.4866708 160.039343,20.4987725 159.489075,20.4987725 C158.953714,20.4987725 158.426798,20.4885845 157.910147,20.4682927 Z M156.414989,20.3789963 C155.107986,20.2730026 153.885148,20.0970499 152.780027,19.8526894 C152.704051,20.1590268 152.638177,20.4586918 152.582843,20.7504713 C152.335219,22.0561541 152.301086,23.216441 152.468787,24.114469 C152.619908,24.9237133 152.922306,25.4565507 153.305405,25.6775482 C153.705115,25.9080645 154.366783,25.899634 155.197444,25.6062989 C156.121971,25.2798167 157.170876,24.6306571 158.2172,23.7158161 C158.387997,23.5664545 158.559742,23.4083171 158.732166,23.2417976 C157.943993,22.3959843 157.161787,21.4298436 156.414989,20.3789963 Z M159.489075,17.3866268 C158.158448,17.3866268 157.079761,16.3079402 157.079761,14.9773129 C157.079761,13.6466855 158.158448,12.5679989 159.489075,12.5679989 C160.819702,12.5679989 161.898389,13.6466855 161.898389,14.9773129 C161.898389,16.3079402 160.819702,17.3866268 159.489075,17.3866268 Z" id="react"></path>
            </g>
        </g>
    </g>
</svg>